<svg viewBox="0 0 185 30" xmlns="http://www.w3.org/2000/svg" xmlns:xlink="http://www.w3.org/1999/xlink" width="185.000000" height="30.000000" fill="none" customFrame="#000000">
	<g id="categories">
		<path id="Browse Categories" d="M33.0156 15.784L33.0156 14.856L34.8236 14.856C35.1756 14.856 35.485 14.7973 35.7516 14.68C36.0183 14.5627 36.2263 14.3973 36.3756 14.184C36.525 13.96 36.5996 13.6933 36.5996 13.384C36.5996 12.9147 36.4343 12.552 36.1036 12.296C35.773 12.04 35.3463 11.912 34.8236 11.912L33.4636 11.912L33.4636 20.008L35.0316 20.008C35.4583 20.008 35.837 19.9387 36.1676 19.8C36.4983 19.6613 36.7596 19.4533 36.9516 19.176C37.1436 18.8987 37.2396 18.552 37.2396 18.136C37.2396 17.8373 37.181 17.576 37.0636 17.352C36.957 17.1173 36.8023 16.9253 36.5996 16.776C36.4076 16.616 36.1783 16.504 35.9116 16.44C35.645 16.3653 35.3516 16.328 35.0316 16.328L33.0156 16.328L33.0156 15.288L35.1436 15.288C35.6876 15.288 36.1996 15.3467 36.6796 15.464C37.1596 15.5813 37.5863 15.7627 37.9596 16.008C38.3436 16.2533 38.6423 16.568 38.8556 16.952C39.069 17.336 39.1756 17.7947 39.1756 18.328C39.1756 19.064 38.9996 19.672 38.6476 20.152C38.3063 20.632 37.8316 20.9893 37.2236 21.224C36.6263 21.448 35.933 21.56 35.1436 21.56L31.5756 21.56L31.5756 10.36L34.9516 10.36C35.6556 10.36 36.2743 10.4613 36.8076 10.664C37.3516 10.8667 37.773 11.176 38.0716 11.592C38.381 12.008 38.5356 12.536 38.5356 13.176C38.5356 13.7307 38.381 14.2053 38.0716 14.6C37.773 14.984 37.3516 15.2773 36.8076 15.48C36.2743 15.6827 35.6556 15.784 34.9516 15.784L33.0156 15.784ZM42.7374 14.2L42.7374 21.56L41.0254 21.56L41.0254 14.2L42.7374 14.2ZM44.9294 16.04C44.7694 15.912 44.6201 15.816 44.4814 15.752C44.3427 15.688 44.1667 15.656 43.9534 15.656C43.6654 15.656 43.4307 15.7307 43.2494 15.88C43.0681 16.0293 42.9347 16.2373 42.8494 16.504C42.7747 16.76 42.7374 17.064 42.7374 17.416L42.1614 17.08C42.1614 16.4933 42.2681 15.976 42.4814 15.528C42.7054 15.0693 42.9881 14.7067 43.3294 14.44C43.6814 14.1733 44.0441 14.04 44.4174 14.04C44.6841 14.04 44.9347 14.0827 45.1694 14.168C45.4041 14.2427 45.6014 14.3813 45.7614 14.584L44.9294 16.04ZM46.1529 17.88C46.1529 17.1227 46.3236 16.456 46.6649 15.88C47.0169 15.304 47.4916 14.856 48.0889 14.536C48.6862 14.2053 49.3636 14.04 50.1209 14.04C50.8782 14.04 51.5502 14.2053 52.1369 14.536C52.7342 14.856 53.2089 15.304 53.5609 15.88C53.9129 16.456 54.0889 17.1227 54.0889 17.88C54.0889 18.6267 53.9129 19.2933 53.5609 19.88C53.2089 20.456 52.7342 20.9093 52.1369 21.24C51.5502 21.56 50.8782 21.72 50.1209 21.72C49.3636 21.72 48.6862 21.56 48.0889 21.24C47.4916 20.9093 47.0169 20.456 46.6649 19.88C46.3236 19.2933 46.1529 18.6267 46.1529 17.88ZM47.9289 17.88C47.9289 18.3387 48.0249 18.744 48.2169 19.096C48.4089 19.4373 48.6702 19.7093 49.0009 19.912C49.3316 20.104 49.7049 20.2 50.1209 20.2C50.5262 20.2 50.8942 20.104 51.2249 19.912C51.5662 19.7093 51.8329 19.4373 52.0249 19.096C52.2169 18.744 52.3129 18.3387 52.3129 17.88C52.3129 17.4213 52.2169 17.016 52.0249 16.664C51.8329 16.312 51.5662 16.04 51.2249 15.848C50.8942 15.656 50.5262 15.56 50.1209 15.56C49.7049 15.56 49.3316 15.656 49.0009 15.848C48.6702 16.04 48.4089 16.312 48.2169 16.664C48.0249 17.016 47.9289 17.4213 47.9289 17.88ZM54.3901 14.2L56.2621 14.2L57.9901 18.584L60.0221 13.64L62.1821 18.6L63.9101 14.2L65.7821 14.2L62.3421 22.088L60.0381 17.112L57.8301 22.088L54.3901 14.2ZM67.2208 19.144C67.4554 19.4 67.6901 19.624 67.9248 19.816C68.1701 19.9973 68.4154 20.136 68.6608 20.232C68.9061 20.3173 69.1514 20.36 69.3968 20.36C69.7061 20.36 69.9461 20.2907 70.1168 20.152C70.2981 20.0133 70.3888 19.8213 70.3888 19.576C70.3888 19.3627 70.3194 19.1813 70.1808 19.032C70.0421 18.872 69.8501 18.7387 69.6048 18.632C69.3594 18.5147 69.0714 18.3973 68.7408 18.28C68.4101 18.152 68.0794 18.0027 67.7488 17.832C67.4288 17.6507 67.1621 17.416 66.9488 17.128C66.7461 16.84 66.6448 16.4773 66.6448 16.04C66.6448 15.592 66.7568 15.2187 66.9808 14.92C67.2154 14.6213 67.5248 14.4027 67.9088 14.264C68.3034 14.1147 68.7248 14.04 69.1728 14.04C69.5781 14.04 69.9568 14.0987 70.3088 14.216C70.6714 14.3333 70.9968 14.488 71.2848 14.68C71.5728 14.872 71.8181 15.0907 72.0208 15.336L71.0608 16.36C70.8154 16.072 70.5221 15.8373 70.1808 15.656C69.8394 15.4747 69.4874 15.384 69.1248 15.384C68.8794 15.384 68.6768 15.4373 68.5168 15.544C68.3568 15.6507 68.2768 15.8053 68.2768 16.008C68.2768 16.1787 68.3461 16.3333 68.4848 16.472C68.6341 16.6 68.8261 16.7173 69.0608 16.824C69.3061 16.9307 69.5781 17.0427 69.8768 17.16C70.2821 17.32 70.6554 17.496 70.9968 17.688C71.3381 17.88 71.6101 18.1147 71.8128 18.392C72.0261 18.6693 72.1328 19.032 72.1328 19.48C72.1328 20.1733 71.8928 20.7333 71.4128 21.16C70.9434 21.576 70.3034 21.784 69.4928 21.784C68.9914 21.784 68.5274 21.7093 68.1008 21.56C67.6848 21.4 67.3168 21.1973 66.9968 20.952C66.6874 20.696 66.4261 20.4293 66.2128 20.152L67.2208 19.144ZM76.866 21.72C76.1193 21.72 75.458 21.56 74.882 21.24C74.3167 20.92 73.8793 20.472 73.57 19.896C73.2607 19.32 73.106 18.648 73.106 17.88C73.106 17.1013 73.2607 16.424 73.57 15.848C73.89 15.272 74.338 14.8293 74.914 14.52C75.49 14.2 76.1673 14.04 76.946 14.04C77.7247 14.04 78.386 14.1893 78.93 14.488C79.474 14.7867 79.89 15.2187 80.178 15.784C80.4767 16.3387 80.626 17.0107 80.626 17.8C80.626 17.8853 80.6207 17.976 80.61 18.072C80.61 18.168 80.6047 18.2373 80.594 18.28L74.13 18.28L74.13 17.096L79.122 17.096L78.594 17.832C78.626 17.768 78.658 17.6827 78.69 17.576C78.7327 17.4587 78.754 17.3627 78.754 17.288C78.754 16.8933 78.674 16.552 78.514 16.264C78.3647 15.976 78.1513 15.752 77.874 15.592C77.6073 15.432 77.2927 15.352 76.93 15.352C76.4927 15.352 76.1193 15.448 75.81 15.64C75.5007 15.832 75.266 16.1093 75.106 16.472C74.946 16.8347 74.8607 17.2827 74.85 17.816C74.85 18.3493 74.93 18.8027 75.09 19.176C75.25 19.5387 75.4847 19.816 75.794 20.008C76.114 20.2 76.498 20.296 76.946 20.296C77.4153 20.296 77.826 20.2 78.178 20.008C78.53 19.816 78.8233 19.5227 79.058 19.128L80.546 19.736C80.162 20.3973 79.666 20.8933 79.058 21.224C78.45 21.5547 77.7193 21.72 76.866 21.72ZM88.6083 15.96C88.6083 16.7493 88.7843 17.4427 89.1363 18.04C89.4989 18.6373 89.9683 19.1013 90.5443 19.432C91.1309 19.752 91.7656 19.912 92.4483 19.912C92.9816 19.912 93.4616 19.8427 93.8883 19.704C94.3149 19.5653 94.6989 19.3787 95.0403 19.144C95.3923 18.8987 95.6963 18.6267 95.9523 18.328L95.9523 20.568C95.4829 20.952 94.9763 21.2453 94.4323 21.448C93.8883 21.6507 93.2056 21.752 92.3843 21.752C91.5629 21.752 90.7949 21.6133 90.0803 21.336C89.3763 21.0587 88.7629 20.6587 88.2403 20.136C87.7176 19.6133 87.3069 19 87.0083 18.296C86.7203 17.5813 86.5763 16.8027 86.5763 15.96C86.5763 15.1173 86.7203 14.344 87.0083 13.64C87.3069 12.9253 87.7176 12.3067 88.2403 11.784C88.7629 11.2613 89.3763 10.8613 90.0803 10.584C90.7949 10.3067 91.5629 10.168 92.3843 10.168C93.2056 10.168 93.8883 10.2693 94.4323 10.472C94.9763 10.6747 95.4829 10.968 95.9523 11.352L95.9523 13.592C95.6963 13.2933 95.3923 13.0267 95.0403 12.792C94.6989 12.5467 94.3149 12.3547 93.8883 12.216C93.4616 12.0773 92.9816 12.008 92.4483 12.008C91.7656 12.008 91.1309 12.1733 90.5443 12.504C89.9683 12.824 89.4989 13.2827 89.1363 13.88C88.7843 14.4667 88.6083 15.16 88.6083 15.96ZM99.2228 19.272C99.2228 19.5173 99.2814 19.7307 99.3988 19.912C99.5161 20.0827 99.6761 20.2107 99.8788 20.296C100.092 20.3813 100.332 20.424 100.599 20.424C100.94 20.424 101.249 20.3547 101.527 20.216C101.815 20.0773 102.044 19.8747 102.215 19.608C102.396 19.3307 102.487 19.0107 102.487 18.648L102.743 19.608C102.743 20.0773 102.604 20.472 102.327 20.792C102.06 21.1013 101.719 21.336 101.303 21.496C100.897 21.6453 100.481 21.72 100.055 21.72C99.5961 21.72 99.1694 21.6293 98.7748 21.448C98.3801 21.2667 98.0654 21 97.8308 20.648C97.5961 20.296 97.4788 19.8693 97.4788 19.368C97.4788 18.6533 97.7294 18.088 98.2308 17.672C98.7321 17.2453 99.4414 17.032 100.359 17.032C100.849 17.032 101.271 17.0853 101.623 17.192C101.985 17.2987 102.284 17.4267 102.519 17.576C102.753 17.7147 102.919 17.8427 103.015 17.96L103.015 18.84C102.684 18.6053 102.332 18.4347 101.959 18.328C101.585 18.2213 101.191 18.168 100.775 18.168C100.412 18.168 100.119 18.216 99.8948 18.312C99.6708 18.3973 99.5001 18.52 99.3828 18.68C99.2761 18.84 99.2228 19.0373 99.2228 19.272ZM98.6788 16.12L97.9748 14.904C98.3054 14.7013 98.7321 14.504 99.2548 14.312C99.7881 14.12 100.396 14.024 101.079 14.024C101.687 14.024 102.22 14.1147 102.679 14.296C103.148 14.4773 103.516 14.7387 103.783 15.08C104.049 15.4107 104.183 15.8213 104.183 16.312L104.183 21.56L102.487 21.56L102.487 16.648C102.487 16.4133 102.444 16.2213 102.359 16.072C102.284 15.9227 102.177 15.8 102.039 15.704C101.9 15.608 101.735 15.5387 101.543 15.496C101.351 15.4533 101.143 15.432 100.919 15.432C100.577 15.432 100.252 15.4747 99.9428 15.56C99.6441 15.6347 99.3828 15.7307 99.1588 15.848C98.9454 15.9547 98.7854 16.0453 98.6788 16.12ZM105.173 14.2L109.349 14.2L109.349 15.72L105.173 15.72L105.173 14.2ZM106.405 11.64L108.117 11.64L108.117 21.56L106.405 21.56L106.405 11.64ZM113.741 21.72C112.994 21.72 112.333 21.56 111.757 21.24C111.192 20.92 110.754 20.472 110.445 19.896C110.136 19.32 109.981 18.648 109.981 17.88C109.981 17.1013 110.136 16.424 110.445 15.848C110.765 15.272 111.213 14.8293 111.789 14.52C112.365 14.2 113.042 14.04 113.821 14.04C114.6 14.04 115.261 14.1893 115.805 14.488C116.349 14.7867 116.765 15.2187 117.053 15.784C117.352 16.3387 117.501 17.0107 117.501 17.8C117.501 17.8853 117.496 17.976 117.485 18.072C117.485 18.168 117.48 18.2373 117.469 18.28L111.005 18.28L111.005 17.096L115.997 17.096L115.469 17.832C115.501 17.768 115.533 17.6827 115.565 17.576C115.608 17.4587 115.629 17.3627 115.629 17.288C115.629 16.8933 115.549 16.552 115.389 16.264C115.24 15.976 115.026 15.752 114.749 15.592C114.482 15.432 114.168 15.352 113.805 15.352C113.368 15.352 112.994 15.448 112.685 15.64C112.376 15.832 112.141 16.1093 111.981 16.472C111.821 16.8347 111.736 17.2827 111.725 17.816C111.725 18.3493 111.805 18.8027 111.965 19.176C112.125 19.5387 112.36 19.816 112.669 20.008C112.989 20.2 113.373 20.296 113.821 20.296C114.29 20.296 114.701 20.2 115.053 20.008C115.405 19.816 115.698 19.5227 115.933 19.128L117.421 19.736C117.037 20.3973 116.541 20.8933 115.933 21.224C115.325 21.5547 114.594 21.72 113.741 21.72ZM118.734 22.056L120.446 22.056C120.457 22.3867 120.548 22.6853 120.718 22.952C120.9 23.2187 121.145 23.4267 121.454 23.576C121.764 23.7253 122.121 23.8 122.526 23.8C122.889 23.8 123.236 23.7147 123.566 23.544C123.897 23.3733 124.164 23.112 124.366 22.76C124.58 22.408 124.686 21.9547 124.686 21.4L124.686 14.2L126.382 14.2L126.382 21.4C126.382 22.2853 126.201 23.016 125.838 23.592C125.486 24.168 125.022 24.5947 124.446 24.872C123.87 25.16 123.246 25.304 122.574 25.304C121.774 25.304 121.092 25.1653 120.526 24.888C119.961 24.6213 119.524 24.2427 119.214 23.752C118.916 23.2613 118.756 22.696 118.734 22.056ZM118.59 17.848C118.59 17.0267 118.756 16.3387 119.086 15.784C119.417 15.2187 119.854 14.7867 120.398 14.488C120.953 14.1893 121.545 14.04 122.174 14.04C122.793 14.04 123.332 14.1947 123.79 14.504C124.26 14.8027 124.628 15.2347 124.894 15.8C125.172 16.3653 125.31 17.048 125.31 17.848C125.31 18.6373 125.172 19.3147 124.894 19.88C124.628 20.4453 124.26 20.8827 123.79 21.192C123.332 21.4907 122.793 21.64 122.174 21.64C121.545 21.64 120.953 21.4907 120.398 21.192C119.854 20.8933 119.417 20.4613 119.086 19.896C118.756 19.3307 118.59 18.648 118.59 17.848ZM120.382 17.848C120.382 18.3387 120.484 18.7547 120.686 19.096C120.889 19.4373 121.156 19.6987 121.486 19.88C121.828 20.0507 122.196 20.136 122.59 20.136C122.921 20.136 123.246 20.0507 123.566 19.88C123.897 19.7093 124.164 19.4533 124.366 19.112C124.58 18.76 124.686 18.3387 124.686 17.848C124.686 17.464 124.622 17.1333 124.494 16.856C124.377 16.568 124.217 16.328 124.014 16.136C123.812 15.9333 123.582 15.784 123.326 15.688C123.081 15.592 122.836 15.544 122.59 15.544C122.196 15.544 121.828 15.6347 121.486 15.816C121.156 15.9867 120.889 16.2427 120.686 16.584C120.484 16.9253 120.382 17.3467 120.382 17.848ZM127.965 17.88C127.965 17.1227 128.136 16.456 128.477 15.88C128.829 15.304 129.304 14.856 129.901 14.536C130.499 14.2053 131.176 14.04 131.933 14.04C132.691 14.04 133.363 14.2053 133.949 14.536C134.547 14.856 135.021 15.304 135.373 15.88C135.725 16.456 135.901 17.1227 135.901 17.88C135.901 18.6267 135.725 19.2933 135.373 19.88C135.021 20.456 134.547 20.9093 133.949 21.24C133.363 21.56 132.691 21.72 131.933 21.72C131.176 21.72 130.499 21.56 129.901 21.24C129.304 20.9093 128.829 20.456 128.477 19.88C128.136 19.2933 127.965 18.6267 127.965 17.88ZM129.741 17.88C129.741 18.3387 129.837 18.744 130.029 19.096C130.221 19.4373 130.483 19.7093 130.813 19.912C131.144 20.104 131.517 20.2 131.933 20.2C132.339 20.2 132.707 20.104 133.037 19.912C133.379 19.7093 133.645 19.4373 133.837 19.096C134.029 18.744 134.125 18.3387 134.125 17.88C134.125 17.4213 134.029 17.016 133.837 16.664C133.645 16.312 133.379 16.04 133.037 15.848C132.707 15.656 132.339 15.56 131.933 15.56C131.517 15.56 131.144 15.656 130.813 15.848C130.483 16.04 130.221 16.312 130.029 16.664C129.837 17.016 129.741 17.4213 129.741 17.88ZM139.253 14.2L139.253 21.56L137.541 21.56L137.541 14.2L139.253 14.2ZM141.445 16.04C141.285 15.912 141.136 15.816 140.997 15.752C140.858 15.688 140.682 15.656 140.469 15.656C140.181 15.656 139.946 15.7307 139.765 15.88C139.584 16.0293 139.45 16.2373 139.365 16.504C139.29 16.76 139.253 17.064 139.253 17.416L138.677 17.08C138.677 16.4933 138.784 15.976 138.997 15.528C139.221 15.0693 139.504 14.7067 139.845 14.44C140.197 14.1733 140.56 14.04 140.933 14.04C141.2 14.04 141.45 14.0827 141.685 14.168C141.92 14.2427 142.117 14.3813 142.277 14.584L141.445 16.04ZM143.399 11.272C143.399 10.9733 143.506 10.7227 143.719 10.52C143.943 10.3173 144.199 10.216 144.487 10.216C144.796 10.216 145.052 10.3173 145.255 10.52C145.468 10.7227 145.575 10.9733 145.575 11.272C145.575 11.56 145.468 11.8107 145.255 12.024C145.052 12.2267 144.796 12.328 144.487 12.328C144.199 12.328 143.943 12.2267 143.719 12.024C143.506 11.8107 143.399 11.56 143.399 11.272ZM143.639 14.2L145.335 14.2L145.335 21.56L143.639 21.56L143.639 14.2ZM150.913 21.72C150.166 21.72 149.505 21.56 148.929 21.24C148.364 20.92 147.926 20.472 147.617 19.896C147.308 19.32 147.153 18.648 147.153 17.88C147.153 17.1013 147.308 16.424 147.617 15.848C147.937 15.272 148.385 14.8293 148.961 14.52C149.537 14.2 150.214 14.04 150.993 14.04C151.772 14.04 152.433 14.1893 152.977 14.488C153.521 14.7867 153.937 15.2187 154.225 15.784C154.524 16.3387 154.673 17.0107 154.673 17.8C154.673 17.8853 154.668 17.976 154.657 18.072C154.657 18.168 154.652 18.2373 154.641 18.28L148.177 18.28L148.177 17.096L153.169 17.096L152.641 17.832C152.673 17.768 152.705 17.6827 152.737 17.576C152.78 17.4587 152.801 17.3627 152.801 17.288C152.801 16.8933 152.721 16.552 152.561 16.264C152.412 15.976 152.198 15.752 151.921 15.592C151.654 15.432 151.34 15.352 150.977 15.352C150.54 15.352 150.166 15.448 149.857 15.64C149.548 15.832 149.313 16.1093 149.153 16.472C148.993 16.8347 148.908 17.2827 148.897 17.816C148.897 18.3493 148.977 18.8027 149.137 19.176C149.297 19.5387 149.532 19.816 149.841 20.008C150.161 20.2 150.545 20.296 150.993 20.296C151.462 20.296 151.873 20.2 152.225 20.008C152.577 19.816 152.87 19.5227 153.105 19.128L154.593 19.736C154.209 20.3973 153.713 20.8933 153.105 21.224C152.497 21.5547 151.766 21.72 150.913 21.72ZM156.658 19.144C156.893 19.4 157.128 19.624 157.362 19.816C157.608 19.9973 157.853 20.136 158.098 20.232C158.344 20.3173 158.589 20.36 158.834 20.36C159.144 20.36 159.384 20.2907 159.554 20.152C159.736 20.0133 159.826 19.8213 159.826 19.576C159.826 19.3627 159.757 19.1813 159.618 19.032C159.48 18.872 159.288 18.7387 159.042 18.632C158.797 18.5147 158.509 18.3973 158.178 18.28C157.848 18.152 157.517 18.0027 157.186 17.832C156.866 17.6507 156.6 17.416 156.386 17.128C156.184 16.84 156.082 16.4773 156.082 16.04C156.082 15.592 156.194 15.2187 156.418 14.92C156.653 14.6213 156.962 14.4027 157.346 14.264C157.741 14.1147 158.162 14.04 158.61 14.04C159.016 14.04 159.394 14.0987 159.746 14.216C160.109 14.3333 160.434 14.488 160.722 14.68C161.01 14.872 161.256 15.0907 161.458 15.336L160.498 16.36C160.253 16.072 159.96 15.8373 159.618 15.656C159.277 15.4747 158.925 15.384 158.562 15.384C158.317 15.384 158.114 15.4373 157.954 15.544C157.794 15.6507 157.714 15.8053 157.714 16.008C157.714 16.1787 157.784 16.3333 157.922 16.472C158.072 16.6 158.264 16.7173 158.498 16.824C158.744 16.9307 159.016 17.0427 159.314 17.16C159.72 17.32 160.093 17.496 160.434 17.688C160.776 17.88 161.048 18.1147 161.25 18.392C161.464 18.6693 161.57 19.032 161.57 19.48C161.57 20.1733 161.33 20.7333 160.85 21.16C160.381 21.576 159.741 21.784 158.93 21.784C158.429 21.784 157.965 21.7093 157.538 21.56C157.122 21.4 156.754 21.1973 156.434 20.952C156.125 20.696 155.864 20.4293 155.65 20.152L156.658 19.144Z" fill="rgb(255,255,255)" fill-rule="nonzero" />
		<g id="Group 44">
			<rect id="Rectangle 50" width="15.163935" height="2.000000" x="5.054688" y="8.000000" fill="rgb(255,255,255)" />
			<rect id="Rectangle 51" width="20.218578" height="2.000000" x="0.000000" y="16.000000" fill="rgb(255,255,255)" />
			<rect id="Rectangle 52" width="15.163935" height="2.000000" x="0.000000" y="24.000000" fill="rgb(255,255,255)" />
		</g>
		<rect id="Rectangle 61" width="1.010929" height="30.000000" x="183.989258" y="0.000000" opacity="0.100000001" fill="rgb(255,255,255)" />
	</g>
</svg>
