<svg width="18" height="18" viewBox="0 0 18 18" fill="none" xmlns="http://www.w3.org/2000/svg">
<path d="M8.22136 0.609375C4.10479 0.609375 0.751465 3.97548 0.751465 8.10776C0.751465 12.24 4.10479 15.6127 8.22136 15.6127C9.97967 15.6127 11.5968 14.9941 12.8748 13.9671L15.9863 17.0889C16.1434 17.24 16.3531 17.3233 16.5706 17.3211C16.7881 17.3189 16.9961 17.2312 17.15 17.0769C17.3039 16.9227 17.3915 16.714 17.394 16.4957C17.3966 16.2774 17.3138 16.0667 17.1635 15.9089L14.052 12.7856C15.0759 11.5006 15.6929 9.87481 15.6929 8.10776C15.6929 3.97548 12.3379 0.609375 8.22136 0.609375ZM8.22136 2.27607C11.4406 2.27607 14.0309 4.87623 14.0309 8.10776C14.0309 11.3393 11.4406 13.946 8.22136 13.946C5.0021 13.946 2.4118 11.3393 2.4118 8.10776C2.4118 4.87623 5.0021 2.27607 8.22136 2.27607Z" fill="#443297"/>
</svg>
